<?xml version="1.0" encoding="utf-8"?>
<svg xmlns="http://www.w3.org/2000/svg" height="256" width="256" viewBox="0 0 256 256">
  <g>
    <path id="path1" transform="rotate(270,128,128) translate(2.97856121063232,1.59999999999999) scale(7.9,7.9)  " fill="#FF1F1F1F" d="M8.497985,5.3999939L8.497985,14.304993 12.181975,14.304993C14.005981,14.304993 15.470977,13.855011 16.575988,12.964996 17.697997,12.054993 18.259002,10.934998 18.259002,9.5950012 18.259002,6.8000183 16.285979,5.3999939 12.338988,5.3999939z M0,0L13.470977,0C22.626983,0 27.204986,2.8999939 27.204986,8.7050171 27.204986,9.8150024 27.00299,10.850006 26.599975,11.795013 26.195983,12.73999 25.626983,13.589996 24.889983,14.345001 24.152984,15.105011 23.263,15.76001 22.218993,16.309998 21.174987,16.860016 20.013976,17.295013 18.733001,17.605011L18.733001,17.695007C19.294982,17.845001 19.837981,18.084991 20.364989,18.420013 20.889983,18.755005 21.398986,19.144989 21.889983,19.589996 22.380981,20.040009 22.850982,20.519989 23.296996,21.029999 23.744994,21.545013 24.152984,22.045013 24.520995,22.535004L31.650998,32 21.889983,32 16.022979,23.765015C15.584991,23.140015 15.162994,22.580017 14.759978,22.089996 14.355987,21.600006 13.949004,21.179993 13.536986,20.830017 13.124999,20.480011 12.694976,20.214996 12.246978,20.024994 11.799987,19.839996 11.313995,19.75 10.786986,19.75L8.497985,19.75 8.497985,32 0,32z" />
  </g>
</svg>

